<?xml version="1.0" encoding="UTF-8" standalone="no"?>
<!DOCTYPE svg PUBLIC "-//W3C//DTD SVG 1.1//EN" "http://www.w3.org/Graphics/SVG/1.1/DTD/svg11.dtd">
<svg width="100%" height="100%" viewBox="0 0 350 60" version="1.1" xmlns="http://www.w3.org/2000/svg" xmlns:xlink="http://www.w3.org/1999/xlink" xml:space="preserve" xmlns:serif="http://www.serif.com/" style="fill-rule:evenodd;clip-rule:evenodd;stroke-linejoin:round;stroke-miterlimit:2;">
    <g transform="matrix(1,0,0,1,-10.4257,2.40017)">
        <g transform="matrix(40,0,0,40,10.9858,42.4465)">
            <path d="M0.08,-0.362L0.501,-0.569L0.49,-0.481C0.489,-0.474 0.487,-0.468 0.483,-0.462C0.479,-0.457 0.473,-0.452 0.465,-0.448L0.272,-0.355C0.263,-0.351 0.255,-0.348 0.246,-0.345C0.237,-0.342 0.228,-0.339 0.218,-0.337C0.227,-0.335 0.236,-0.332 0.244,-0.329C0.252,-0.326 0.26,-0.323 0.267,-0.319L0.438,-0.226C0.444,-0.222 0.449,-0.218 0.452,-0.213C0.454,-0.209 0.456,-0.204 0.456,-0.198C0.456,-0.198 0.455,-0.197 0.455,-0.196C0.455,-0.194 0.455,-0.191 0.454,-0.185C0.453,-0.179 0.452,-0.169 0.45,-0.157C0.449,-0.145 0.447,-0.127 0.444,-0.105L0.074,-0.312L0.08,-0.362Z" style="fill:white;fill-rule:nonzero;"/>
        </g>
        <g transform="matrix(40,0,0,40,32.3258,42.4465)">
            <path d="M0.203,-0.285L0.168,0L0.039,0L0.127,-0.723L0.333,-0.723C0.374,-0.723 0.41,-0.719 0.44,-0.71C0.469,-0.701 0.494,-0.689 0.513,-0.673C0.532,-0.657 0.546,-0.638 0.555,-0.616C0.564,-0.594 0.568,-0.57 0.568,-0.544C0.568,-0.516 0.564,-0.489 0.556,-0.465C0.548,-0.44 0.537,-0.418 0.523,-0.398C0.508,-0.378 0.49,-0.361 0.469,-0.346C0.447,-0.331 0.423,-0.319 0.396,-0.311C0.404,-0.306 0.411,-0.3 0.417,-0.294C0.423,-0.287 0.429,-0.279 0.434,-0.27L0.563,0L0.446,0C0.435,0 0.426,-0.002 0.418,-0.007C0.411,-0.011 0.405,-0.018 0.402,-0.026L0.296,-0.261C0.292,-0.269 0.287,-0.275 0.281,-0.279C0.275,-0.283 0.266,-0.285 0.254,-0.285L0.203,-0.285ZM0.245,-0.623L0.214,-0.378L0.289,-0.378C0.315,-0.378 0.337,-0.381 0.356,-0.389C0.375,-0.396 0.391,-0.407 0.403,-0.42C0.415,-0.433 0.424,-0.448 0.43,-0.466C0.436,-0.484 0.439,-0.503 0.439,-0.523C0.439,-0.554 0.429,-0.579 0.41,-0.597C0.391,-0.614 0.361,-0.623 0.321,-0.623L0.245,-0.623Z" style="fill:rgb(0,255,0);fill-rule:nonzero;"/>
        </g>
        <g transform="matrix(40,0,0,40,55.7058,42.4465)">
            <path d="M0.723,-0.41C0.723,-0.37 0.719,-0.332 0.71,-0.296C0.701,-0.26 0.688,-0.226 0.672,-0.195C0.655,-0.164 0.635,-0.136 0.612,-0.111C0.589,-0.086 0.563,-0.065 0.534,-0.047C0.505,-0.029 0.474,-0.016 0.441,-0.006C0.407,0.003 0.372,0.008 0.335,0.008C0.289,0.008 0.247,0 0.211,-0.017C0.174,-0.033 0.143,-0.055 0.117,-0.084C0.091,-0.113 0.071,-0.147 0.058,-0.186C0.044,-0.225 0.037,-0.267 0.037,-0.313C0.037,-0.353 0.041,-0.391 0.05,-0.427C0.059,-0.463 0.072,-0.497 0.088,-0.528C0.105,-0.559 0.125,-0.587 0.148,-0.612C0.171,-0.636 0.197,-0.658 0.226,-0.676C0.255,-0.694 0.286,-0.707 0.32,-0.717C0.353,-0.726 0.389,-0.731 0.426,-0.731C0.472,-0.731 0.513,-0.723 0.55,-0.707C0.587,-0.69 0.618,-0.668 0.644,-0.639C0.669,-0.61 0.689,-0.576 0.703,-0.537C0.716,-0.498 0.723,-0.456 0.723,-0.41ZM0.59,-0.407C0.59,-0.44 0.586,-0.469 0.578,-0.496C0.57,-0.523 0.558,-0.546 0.542,-0.565C0.527,-0.584 0.508,-0.598 0.486,-0.609C0.463,-0.619 0.438,-0.624 0.41,-0.624C0.374,-0.624 0.341,-0.617 0.312,-0.602C0.282,-0.587 0.257,-0.567 0.236,-0.54C0.215,-0.513 0.199,-0.48 0.187,-0.442C0.176,-0.404 0.17,-0.362 0.17,-0.316C0.17,-0.283 0.174,-0.253 0.182,-0.227C0.19,-0.2 0.202,-0.177 0.217,-0.158C0.232,-0.139 0.251,-0.125 0.273,-0.115C0.295,-0.105 0.321,-0.099 0.349,-0.1C0.385,-0.099 0.418,-0.107 0.448,-0.122C0.478,-0.136 0.503,-0.157 0.524,-0.184C0.545,-0.21 0.561,-0.242 0.573,-0.28C0.584,-0.318 0.59,-0.36 0.59,-0.407Z" style="fill:rgb(0,255,0);fill-rule:nonzero;"/>
        </g>
        <g transform="matrix(40,0,0,40,84.9858,42.4465)">
            <path d="M0.035,0L0.124,-0.723L0.356,-0.723C0.396,-0.723 0.43,-0.719 0.459,-0.711C0.487,-0.703 0.511,-0.692 0.529,-0.678C0.547,-0.664 0.56,-0.646 0.569,-0.626C0.578,-0.606 0.582,-0.583 0.582,-0.558C0.582,-0.537 0.579,-0.518 0.574,-0.499C0.568,-0.48 0.56,-0.463 0.548,-0.447C0.536,-0.431 0.522,-0.416 0.504,-0.404C0.486,-0.391 0.464,-0.38 0.439,-0.372C0.48,-0.362 0.511,-0.345 0.531,-0.322C0.551,-0.299 0.561,-0.269 0.561,-0.234C0.561,-0.2 0.554,-0.169 0.542,-0.141C0.53,-0.112 0.512,-0.088 0.489,-0.067C0.465,-0.046 0.437,-0.03 0.403,-0.018C0.37,-0.006 0.332,0 0.29,0L0.035,0ZM0.204,-0.319L0.177,-0.101L0.3,-0.101C0.323,-0.101 0.343,-0.104 0.36,-0.111C0.376,-0.117 0.39,-0.126 0.401,-0.137C0.412,-0.149 0.42,-0.163 0.425,-0.179C0.43,-0.195 0.432,-0.213 0.433,-0.232C0.432,-0.258 0.424,-0.279 0.408,-0.295C0.391,-0.311 0.364,-0.319 0.326,-0.319L0.204,-0.319ZM0.215,-0.408L0.311,-0.408C0.355,-0.408 0.39,-0.419 0.414,-0.44C0.438,-0.46 0.45,-0.493 0.45,-0.536C0.45,-0.566 0.441,-0.588 0.424,-0.602C0.407,-0.616 0.38,-0.623 0.344,-0.623L0.241,-0.623L0.215,-0.408Z" style="fill:rgb(0,255,0);fill-rule:nonzero;"/>
        </g>
        <g transform="matrix(40,0,0,40,108.986,42.4465)">
            <path d="M0.407,-0.2C0.408,-0.196 0.409,-0.193 0.41,-0.189C0.411,-0.185 0.412,-0.181 0.413,-0.177C0.416,-0.184 0.42,-0.192 0.425,-0.2L0.744,-0.698C0.747,-0.702 0.749,-0.705 0.752,-0.706C0.755,-0.707 0.759,-0.708 0.764,-0.708L0.798,-0.708L0.711,0L0.668,0L0.742,-0.605C0.743,-0.608 0.743,-0.612 0.744,-0.617C0.745,-0.621 0.745,-0.626 0.747,-0.631L0.432,-0.136C0.426,-0.128 0.419,-0.124 0.411,-0.124L0.403,-0.124C0.394,-0.124 0.389,-0.128 0.386,-0.136L0.185,-0.632C0.185,-0.622 0.184,-0.613 0.183,-0.605L0.109,0L0.066,0L0.153,-0.708L0.187,-0.708C0.191,-0.708 0.195,-0.707 0.198,-0.706C0.201,-0.705 0.203,-0.703 0.205,-0.698L0.407,-0.2Z" style="fill:white;fill-rule:nonzero;"/>
        </g>
        <g transform="matrix(40,0,0,40,142.446,42.4465)">
            <path d="M0.34,-0.035C0.364,-0.035 0.386,-0.037 0.405,-0.041C0.424,-0.045 0.442,-0.05 0.457,-0.056C0.472,-0.062 0.484,-0.069 0.495,-0.076C0.506,-0.083 0.515,-0.09 0.523,-0.096C0.531,-0.102 0.537,-0.108 0.542,-0.112C0.547,-0.116 0.55,-0.118 0.553,-0.118C0.556,-0.118 0.558,-0.117 0.56,-0.115L0.577,-0.094C0.562,-0.078 0.545,-0.064 0.528,-0.052C0.51,-0.039 0.492,-0.029 0.472,-0.02C0.452,-0.011 0.43,-0.004 0.407,0.001C0.384,0.006 0.359,0.008 0.332,0.008C0.291,0.008 0.255,0.001 0.222,-0.014C0.189,-0.029 0.161,-0.05 0.138,-0.077C0.115,-0.103 0.097,-0.136 0.084,-0.174C0.072,-0.211 0.066,-0.253 0.066,-0.299C0.066,-0.361 0.075,-0.417 0.094,-0.468C0.112,-0.519 0.138,-0.563 0.171,-0.6C0.204,-0.637 0.242,-0.665 0.287,-0.685C0.331,-0.705 0.379,-0.716 0.431,-0.716C0.455,-0.716 0.477,-0.714 0.497,-0.71C0.516,-0.706 0.534,-0.7 0.55,-0.693C0.566,-0.686 0.581,-0.677 0.594,-0.666C0.608,-0.655 0.621,-0.642 0.634,-0.628L0.618,-0.608C0.614,-0.604 0.61,-0.602 0.605,-0.602C0.601,-0.602 0.595,-0.606 0.588,-0.613C0.581,-0.62 0.572,-0.628 0.559,-0.637C0.546,-0.646 0.529,-0.654 0.508,-0.662C0.487,-0.669 0.46,-0.673 0.429,-0.673C0.385,-0.673 0.343,-0.664 0.306,-0.647C0.268,-0.629 0.235,-0.605 0.207,-0.573C0.179,-0.541 0.156,-0.502 0.14,-0.456C0.124,-0.41 0.116,-0.359 0.116,-0.303C0.116,-0.261 0.122,-0.224 0.133,-0.191C0.143,-0.158 0.159,-0.129 0.179,-0.106C0.198,-0.083 0.222,-0.065 0.249,-0.053C0.277,-0.041 0.307,-0.035 0.34,-0.035Z" style="fill:white;fill-rule:nonzero;"/>
        </g>
        <g transform="matrix(40,0,0,40,167.786,42.4465)">
            <path d="M0.663,-0.408C0.663,-0.366 0.658,-0.327 0.65,-0.291C0.642,-0.254 0.63,-0.221 0.615,-0.191C0.6,-0.161 0.582,-0.134 0.56,-0.11C0.539,-0.086 0.515,-0.066 0.488,-0.05C0.461,-0.034 0.433,-0.021 0.402,-0.013C0.371,-0.004 0.338,0 0.304,0L0.066,0L0.153,-0.708L0.391,-0.708C0.432,-0.708 0.47,-0.7 0.504,-0.686C0.537,-0.672 0.566,-0.652 0.589,-0.626C0.613,-0.6 0.631,-0.568 0.644,-0.532C0.656,-0.495 0.663,-0.453 0.663,-0.408ZM0.611,-0.407C0.611,-0.447 0.606,-0.483 0.595,-0.516C0.585,-0.548 0.57,-0.575 0.55,-0.598C0.531,-0.62 0.507,-0.637 0.479,-0.649C0.451,-0.661 0.42,-0.667 0.386,-0.667L0.198,-0.667L0.12,-0.041L0.308,-0.041C0.352,-0.041 0.393,-0.049 0.43,-0.065C0.466,-0.082 0.498,-0.106 0.526,-0.137C0.553,-0.168 0.574,-0.207 0.589,-0.252C0.604,-0.297 0.611,-0.349 0.611,-0.407Z" style="fill:white;fill-rule:nonzero;"/>
        </g>
        <g transform="matrix(40,0,0,40,195.746,42.4465)">
            <path d="M0.697,-0.408C0.697,-0.346 0.687,-0.289 0.669,-0.238C0.651,-0.187 0.626,-0.143 0.594,-0.107C0.561,-0.071 0.523,-0.043 0.479,-0.023C0.435,-0.003 0.387,0.008 0.336,0.008C0.295,0.008 0.257,0 0.224,-0.015C0.191,-0.03 0.162,-0.05 0.139,-0.078C0.115,-0.105 0.097,-0.137 0.085,-0.175C0.072,-0.212 0.066,-0.254 0.066,-0.3C0.066,-0.362 0.075,-0.418 0.093,-0.469C0.111,-0.52 0.137,-0.564 0.169,-0.601C0.201,-0.637 0.239,-0.666 0.283,-0.686C0.327,-0.706 0.374,-0.716 0.425,-0.716C0.467,-0.716 0.504,-0.708 0.538,-0.693C0.571,-0.678 0.6,-0.658 0.623,-0.631C0.647,-0.604 0.665,-0.571 0.678,-0.533C0.69,-0.495 0.697,-0.454 0.697,-0.408ZM0.645,-0.407C0.645,-0.448 0.64,-0.485 0.629,-0.518C0.619,-0.551 0.604,-0.579 0.584,-0.602C0.564,-0.625 0.541,-0.643 0.513,-0.655C0.485,-0.668 0.454,-0.674 0.42,-0.674C0.376,-0.674 0.336,-0.665 0.299,-0.648C0.262,-0.631 0.23,-0.606 0.203,-0.574C0.176,-0.541 0.154,-0.502 0.139,-0.456C0.124,-0.41 0.116,-0.358 0.116,-0.301C0.116,-0.26 0.121,-0.223 0.132,-0.19C0.143,-0.157 0.158,-0.13 0.178,-0.107C0.197,-0.084 0.221,-0.066 0.249,-0.053C0.276,-0.041 0.307,-0.035 0.342,-0.035C0.386,-0.035 0.426,-0.043 0.463,-0.06C0.5,-0.077 0.532,-0.102 0.559,-0.135C0.586,-0.167 0.607,-0.206 0.622,-0.252C0.637,-0.298 0.645,-0.349 0.645,-0.407Z" style="fill:white;fill-rule:nonzero;"/>
        </g>
        <g transform="matrix(40,0,0,40,225.046,42.4465)">
            <path d="M0.177,-0.708C0.182,-0.708 0.185,-0.707 0.187,-0.706C0.189,-0.705 0.192,-0.702 0.194,-0.698L0.537,-0.082C0.537,-0.087 0.538,-0.091 0.538,-0.095C0.538,-0.099 0.538,-0.103 0.539,-0.107L0.613,-0.708L0.657,-0.708L0.57,0L0.547,0C0.538,0 0.532,-0.004 0.528,-0.011L0.185,-0.627L0.183,-0.605L0.109,0L0.066,0L0.153,-0.708L0.177,-0.708Z" style="fill:white;fill-rule:nonzero;"/>
        </g>
        <g transform="matrix(40,0,0,40,252.846,42.4465)">
            <path d="M0.556,0L0.518,0C0.513,0 0.51,-0.001 0.507,-0.004C0.504,-0.006 0.502,-0.009 0.501,-0.013L0.451,-0.22L0.134,-0.22L0.033,-0.013C0.031,-0.009 0.028,-0.006 0.025,-0.004C0.021,-0.001 0.017,0 0.012,0L-0.026,0L0.328,-0.708L0.377,-0.708L0.556,0ZM0.152,-0.257L0.442,-0.257L0.355,-0.617C0.353,-0.622 0.351,-0.628 0.35,-0.636C0.348,-0.643 0.347,-0.65 0.346,-0.658C0.345,-0.656 0.344,-0.652 0.342,-0.648L0.331,-0.624C0.329,-0.62 0.328,-0.617 0.328,-0.616L0.152,-0.257Z" style="fill:white;fill-rule:nonzero;"/>
        </g>
        <g transform="matrix(40,0,0,40,276.446,42.4465)">
            <path d="M0.12,-0.043L0.428,-0.043L0.423,0L0.066,0L0.153,-0.708L0.202,-0.708L0.12,-0.043Z" style="fill:white;fill-rule:nonzero;"/>
        </g>
        <g transform="matrix(40,0,0,40,295.266,42.4465)">
            <path d="M0.663,-0.408C0.663,-0.366 0.658,-0.327 0.65,-0.291C0.642,-0.254 0.63,-0.221 0.615,-0.191C0.6,-0.161 0.582,-0.134 0.56,-0.11C0.539,-0.086 0.515,-0.066 0.488,-0.05C0.461,-0.034 0.433,-0.021 0.402,-0.013C0.371,-0.004 0.338,0 0.304,0L0.066,0L0.153,-0.708L0.391,-0.708C0.432,-0.708 0.47,-0.7 0.504,-0.686C0.537,-0.672 0.566,-0.652 0.589,-0.626C0.613,-0.6 0.631,-0.568 0.644,-0.532C0.656,-0.495 0.663,-0.453 0.663,-0.408ZM0.611,-0.407C0.611,-0.447 0.606,-0.483 0.595,-0.516C0.585,-0.548 0.57,-0.575 0.55,-0.598C0.531,-0.62 0.507,-0.637 0.479,-0.649C0.451,-0.661 0.42,-0.667 0.386,-0.667L0.198,-0.667L0.12,-0.041L0.308,-0.041C0.352,-0.041 0.393,-0.049 0.43,-0.065C0.466,-0.082 0.498,-0.106 0.526,-0.137C0.553,-0.168 0.574,-0.207 0.589,-0.252C0.604,-0.297 0.611,-0.349 0.611,-0.407Z" style="fill:white;fill-rule:nonzero;"/>
        </g>
        <g transform="matrix(40,0,0,40,323.226,42.4465)">
            <path d="M0.109,0.002C0.106,0.009 0.102,0.016 0.098,0.022C0.093,0.027 0.088,0.032 0.082,0.036C0.076,0.04 0.069,0.043 0.063,0.045C0.056,0.047 0.049,0.048 0.043,0.048L-0.009,0.048L0.283,-0.7C0.289,-0.714 0.297,-0.724 0.308,-0.732C0.318,-0.739 0.331,-0.743 0.346,-0.743L0.399,-0.743L0.109,0.002Z" style="fill:rgb(0,255,0);fill-rule:nonzero;"/>
        </g>
        <g transform="matrix(40,0,0,40,338.706,42.4465)">
            <path d="M0.115,-0.105L0.115,-0.193C0.115,-0.2 0.116,-0.206 0.12,-0.211C0.123,-0.217 0.128,-0.222 0.136,-0.226L0.318,-0.319C0.332,-0.326 0.349,-0.332 0.369,-0.337C0.359,-0.339 0.35,-0.342 0.342,-0.345C0.333,-0.348 0.325,-0.351 0.318,-0.355L0.136,-0.448C0.128,-0.452 0.123,-0.457 0.12,-0.462C0.116,-0.468 0.115,-0.474 0.115,-0.481L0.115,-0.569L0.511,-0.362L0.511,-0.312L0.115,-0.105Z" style="fill:rgb(0,255,0);fill-rule:nonzero;"/>
        </g>
    </g>
</svg>
